<svg width="116" height="43" viewBox="0 0 116 43" fill="none" xmlns="http://www.w3.org/2000/svg">
<path d="M9.3948 15.6039H13.9123C14.0023 15.6853 14.9314 17.2354 16.7085 20.2542C20.2925 26.3389 22.1595 29.5162 22.3137 29.7903V29.8159H17.0939C16.9697 29.6918 15.3597 26.9813 12.2595 21.6844C11.8784 21.0506 11.6814 20.7295 11.6643 20.7295C8.17442 26.6558 6.38454 29.6832 6.28605 29.8159H1.04057V29.7517C6.41023 20.631 9.19782 15.9122 9.39907 15.6039H9.3948Z" fill="black"/>
<path d="M23.701 15.6039H28.1115C28.1543 15.6124 28.1757 15.6338 28.1757 15.6681V23.9324C28.1757 25.1228 28.7067 25.9193 29.7644 26.3175C29.9742 26.4074 30.2868 26.4502 30.6936 26.4502H36.166C37.3136 26.4502 38.0972 25.9064 38.5125 24.823C38.5725 24.5576 38.6067 24.2535 38.6067 23.911V15.6724C38.6153 15.6295 38.6367 15.6081 38.671 15.6081H43.0943C43.1371 15.6167 43.1628 15.6381 43.1628 15.6724V25.9792C43.1628 27.3494 42.4006 28.4628 40.8719 29.3192C40.1568 29.6532 39.446 29.8245 38.7395 29.8245H27.9573C26.6685 29.8245 25.5166 29.2849 24.5018 28.2101C23.928 27.5122 23.6411 26.7714 23.6411 25.9835V15.6767C23.6496 15.6338 23.671 15.6124 23.7096 15.6124L23.701 15.6039Z" fill="black"/>
<path d="M44.5502 15.6039H63.9435C63.9863 15.6124 64.012 15.6338 64.012 15.6681V18.9139C64.012 18.9567 63.9906 18.9824 63.9435 18.9824H56.5399V29.7517C56.5399 29.7945 56.5184 29.8159 56.4756 29.8159H52.0523C52.0095 29.8159 51.9838 29.7945 51.9838 29.7517V18.9824H44.5545C44.5117 18.9824 44.486 18.961 44.486 18.9139V15.6681C44.4945 15.6253 44.5159 15.6039 44.5545 15.6039H44.5502Z" fill="black"/>
<path d="M69.7156 15.6037H80.2751C81.8637 15.6037 83.1569 16.216 84.1546 17.445C84.6213 18.1001 84.8568 18.7852 84.8568 19.5132V25.9362C84.8568 27.375 84.0475 28.5097 82.4332 29.3404C81.7524 29.6573 81.033 29.8157 80.2751 29.8157H69.8484C68.3025 29.8157 67.0179 29.1906 65.9945 27.9359C65.5535 27.3108 65.3308 26.6556 65.3308 25.9748V19.4832C65.3308 17.9717 66.2215 16.7984 68.0071 15.9591C68.7136 15.7193 69.2831 15.5994 69.7156 15.5994V15.6037ZM69.874 21.2988V24.095C69.874 25.2425 70.4692 26.009 71.6639 26.3858C71.8309 26.4286 72.0065 26.4501 72.1949 26.4501H78.0227C79.0633 26.4501 79.7912 25.8977 80.2066 24.7929C80.2665 24.6345 80.3008 24.4204 80.3008 24.1592V21.4572C80.3008 20.2454 79.7398 19.4404 78.6179 19.0336C78.2925 18.9993 78.0056 18.9822 77.7572 18.9822H72.1949C71.1244 18.9822 70.3836 19.5303 69.9682 20.6265C69.9083 20.8492 69.874 21.0718 69.874 21.3031V21.2988Z" fill="black"/>
<path d="M4.05625 39.8774L3.75728 39.1825H1.57563L1.27667 39.8774H0.105042L2.48869 34.4476H2.8523L5.22787 39.8774H4.05625ZM3.36943 38.2856L2.66646 36.4918L1.96348 38.2856H3.36943ZM10.2274 34.5445V37.6716C10.2274 38.3718 10.0146 38.9321 9.58909 39.3522C9.16892 39.767 8.62755 39.9744 7.96497 39.9744C7.3024 39.9744 6.75833 39.767 6.33278 39.3522C5.91261 38.9321 5.70252 38.3718 5.70252 37.6716V34.5445H6.79335V37.7524C6.79335 38.1402 6.90108 38.4392 7.11655 38.6493C7.33741 38.8593 7.62022 38.9644 7.96497 38.9644C8.31511 38.9644 8.59792 38.8593 8.81339 38.6493C9.02886 38.4392 9.1366 38.1402 9.1366 37.7524V34.5445H10.2274ZM15.4165 34.5445V35.5303H13.7035V39.8774H12.6127V35.5303H10.9077V34.5445H15.4165ZM16.5341 35.2475C17.0835 34.7142 17.7515 34.4476 18.5379 34.4476C19.3244 34.4476 19.9951 34.7142 20.5499 35.2475C21.1047 35.7754 21.3822 36.4299 21.3822 37.211C21.3822 37.9921 21.1047 38.6493 20.5499 39.1825C19.9951 39.7105 19.3244 39.9744 18.5379 39.9744C17.7515 39.9744 17.0835 39.7105 16.5341 39.1825C15.9846 38.6493 15.7099 37.9921 15.7099 37.211C15.7099 36.4299 15.9846 35.7754 16.5341 35.2475ZM18.546 35.4576C18.0504 35.4576 17.641 35.6219 17.3178 35.9505C16.9946 36.2791 16.833 36.6992 16.833 37.211C16.833 37.7281 16.9919 38.151 17.3098 38.4796C17.633 38.8028 18.0451 38.9644 18.546 38.9644C19.0362 38.9644 19.4429 38.8001 19.7661 38.4715C20.0947 38.1429 20.259 37.7227 20.259 37.211C20.259 36.6992 20.0947 36.2791 19.7661 35.9505C19.4429 35.6219 19.0362 35.4576 18.546 35.4576ZM27.1702 34.4476H27.5257V39.8774H26.4349V37.0251L25.0936 38.7139H24.738L23.3967 37.0251V39.8774H22.3059V34.4476H22.6614L24.9158 37.3403L27.1702 34.4476ZM32.1948 39.8774L31.8959 39.1825H29.7142L29.4153 39.8774H28.2436L30.6273 34.4476H30.9909L33.3665 39.8774H32.1948ZM31.508 38.2856L30.805 36.4918L30.1021 38.2856H31.508ZM37.4949 34.5445V35.5303H35.7819V39.8774H34.6911V35.5303H32.9862V34.5445H37.4949ZM39.3046 34.5445V39.8774H38.2137V34.5445H39.3046ZM41.0429 35.2475C41.5923 34.7142 42.2603 34.4476 43.0468 34.4476C43.8332 34.4476 44.5039 34.7142 45.0587 35.2475C45.6136 35.7754 45.891 36.4299 45.891 37.211C45.891 37.9921 45.6136 38.6493 45.0587 39.1825C44.5039 39.7105 43.8332 39.9744 43.0468 39.9744C42.2603 39.9744 41.5923 39.7105 41.0429 39.1825C40.4934 38.6493 40.2187 37.9921 40.2187 37.211C40.2187 36.4299 40.4934 35.7754 41.0429 35.2475ZM43.0548 35.4576C42.5593 35.4576 42.1499 35.6219 41.8267 35.9505C41.5034 36.2791 41.3418 36.6992 41.3418 37.211C41.3418 37.7281 41.5008 38.151 41.8186 38.4796C42.1418 38.8028 42.5539 38.9644 43.0548 38.9644C43.545 38.9644 43.9517 38.8001 44.2749 38.4715C44.6035 38.1429 44.7678 37.7227 44.7678 37.211C44.7678 36.6992 44.6035 36.2791 44.2749 35.9505C43.9517 35.6219 43.545 35.4576 43.0548 35.4576ZM50.2649 34.5445H51.3558V39.9744H50.9922L47.9055 36.6777V39.8774H46.8147V34.4476H47.1702L50.2649 37.72V34.5445ZM58.4273 34.5445V35.5303H55.9305V36.6131H57.7647V37.5423H55.9305V38.8917H58.5242V39.8774H54.8397V34.5445H58.4273ZM62.8571 34.5445H64.0853L61.7098 39.9744H61.3462L58.9625 34.5445H60.1988L61.532 37.7766L62.8571 34.5445ZM68.4012 34.5445V35.5303H65.9044V36.6131H67.7386V37.5423H65.9044V38.8917H68.4982V39.8774H64.8136V34.5445H68.4012ZM73.9462 39.8774H72.718L71.3363 37.9948H70.5363V39.8774H69.4455V34.5445H71.4494C72.015 34.5445 72.4756 34.7034 72.8311 35.0213C73.192 35.3337 73.3725 35.7485 73.3725 36.2656C73.3725 36.605 73.289 36.9066 73.122 37.1706C72.955 37.4291 72.7261 37.6312 72.4352 37.7766L73.9462 39.8774ZM70.5363 35.5061V37.0332H71.4494C71.7026 37.0332 71.8992 36.9632 72.0393 36.8231C72.1847 36.6831 72.2574 36.4972 72.2574 36.2656C72.2574 36.0394 72.1847 35.8562 72.0393 35.7162C71.8938 35.5761 71.6972 35.5061 71.4494 35.5061H70.5363ZM78.6205 34.5445L76.7863 37.7766V39.8774H75.6955V37.7847L73.8532 34.5445H75.0652L76.2368 36.6615L77.4165 34.5445H78.6205ZM85.707 34.5445H86.919L84.7859 39.9744H84.4303L82.9436 36.6373L81.4487 39.9744H81.0932L78.9601 34.5445H80.1721L81.3599 37.6877L82.7577 34.4476H83.1213L84.5192 37.6877L85.707 34.5445ZM92.2774 34.5445V39.8774H91.1866V37.5746H88.8272V39.8774H87.7364V34.5445H88.8272V36.5888H91.1866V34.5445H92.2774ZM97.0843 34.5445V35.5303H94.5875V36.6131H96.4217V37.5423H94.5875V38.8917H97.1812V39.8774H93.4967V34.5445H97.0843ZM102.629 39.8774H101.401L100.019 37.9948H99.2194V39.8774H98.1286V34.5445H100.132C100.698 34.5445 101.159 34.7034 101.514 35.0213C101.875 35.3337 102.056 35.7485 102.056 36.2656C102.056 36.605 101.972 36.9066 101.805 37.1706C101.638 37.4291 101.409 37.6312 101.118 37.7766L102.629 39.8774ZM99.2194 35.5061V37.0332H100.132C100.386 37.0332 100.582 36.9632 100.722 36.8231C100.868 36.6831 100.94 36.4972 100.94 36.2656C100.94 36.0394 100.868 35.8562 100.722 35.7162C100.577 35.5761 100.38 35.5061 100.132 35.5061H99.2194ZM106.885 34.5445V35.5303H104.388V36.6131H106.222V37.5423H104.388V38.8917H106.982V39.8774H103.297V34.5445H106.885Z" fill="black"/>
<path d="M94.1274 21.2002H99.1374C99.2359 21.2473 100.268 22.1893 102.238 24.0177C106.216 27.7088 108.284 29.6358 108.451 29.7985V29.8156H102.661C102.524 29.7428 100.739 28.0985 97.3004 24.8827C96.8808 24.4973 96.6581 24.3046 96.641 24.3046C92.77 27.8973 90.7832 29.7342 90.6761 29.8156H84.8568V29.7771C90.8131 24.2447 93.9005 21.3886 94.1274 21.2002Z" fill="#231F20"/>
<path d="M99.1802 19.9713H94.1702C94.0718 19.9242 93.0398 18.9822 91.0701 17.1538C87.0921 13.4627 85.0238 11.5358 84.8568 11.373V11.3559H90.6461C90.7832 11.4287 96.6495 16.8669 96.6709 16.8669C100.542 13.2743 115.893 0.0813508 116 -7.62939e-06C116 -7.62939e-06 99.4071 19.7872 99.1845 19.9713H99.1802Z" fill="#231F20"/>
</svg>
