<svg width="62" height="62" viewBox="0 0 62 62" fill="none" xmlns="http://www.w3.org/2000/svg">
<g filter="url(#filter0_d_527_12949)">
<path d="M43.1463 2.82965H18.6049C12.127 2.82965 6.87561 8.08161 6.87561 14.5602V39.0991C6.87561 45.5777 12.127 50.8296 18.6049 50.8296H43.1463C49.6242 50.8296 54.8756 45.5777 54.8756 39.0991V14.5602C54.8756 8.08161 49.6242 2.82965 43.1463 2.82965Z" fill="#F2F2F2"/>
<path d="M43.1463 2.82965H18.6049C12.127 2.82965 6.87561 8.08161 6.87561 14.5602V39.0991C6.87561 45.5777 12.127 50.8296 18.6049 50.8296H43.1463C49.6242 50.8296 54.8756 45.5777 54.8756 39.0991V14.5602C54.8756 8.08161 49.6242 2.82965 43.1463 2.82965Z" stroke="white" stroke-width="1.15801" stroke-miterlimit="10"/>
</g>
<path d="M29.0247 28.0955H33.7474C33.8402 28.1419 34.8146 29.0288 36.6707 30.7562C40.4189 34.2367 42.3729 36.0517 42.5328 36.2115V36.227H37.0729C36.944 36.1548 35.258 34.6079 32.015 31.576C31.618 31.2099 31.4118 31.0295 31.3912 31.0295C27.7409 34.4171 25.8694 36.1497 25.7663 36.227H20.2806V36.1909C25.8952 30.9727 28.8133 28.276 29.0247 28.1007V28.0955Z" fill="black"/>
<path d="M33.7574 27.0178H29.0347C28.9419 26.9714 27.9675 26.0846 26.1114 24.3572C22.3632 20.8767 20.4092 19.0617 20.2493 18.9018V18.8864H25.7093C25.8382 18.9586 31.3703 24.0839 31.3909 24.0839C35.0412 20.6962 49.5185 8.25407 49.6216 8.17673C49.6216 8.17673 33.9739 26.8374 33.7626 27.0178H33.7574Z" fill="#4F46E5"/>
<defs>
<filter id="filter0_d_527_12949" x="0.506577" y="0.513625" width="60.7381" height="60.7381" filterUnits="userSpaceOnUse" color-interpolation-filters="sRGB">
<feFlood flood-opacity="0" result="BackgroundImageFix"/>
<feColorMatrix in="SourceAlpha" type="matrix" values="0 0 0 0 0 0 0 0 0 0 0 0 0 0 0 0 0 0 127 0" result="hardAlpha"/>
<feOffset dy="4.05304"/>
<feGaussianBlur stdDeviation="2.89503"/>
<feColorMatrix type="matrix" values="0 0 0 0 0 0 0 0 0 0 0 0 0 0 0 0 0 0 0.2 0"/>
<feBlend mode="normal" in2="BackgroundImageFix" result="effect1_dropShadow_527_12949"/>
<feBlend mode="normal" in="SourceGraphic" in2="effect1_dropShadow_527_12949" result="shape"/>
</filter>
</defs>
</svg>
