<svg width="115" height="43" viewBox="0 0 115 43" fill="none" xmlns="http://www.w3.org/2000/svg">
<path d="M9.31378 15.4695H13.7924C13.8815 15.5501 14.8027 17.0869 16.5644 20.0797C20.1176 26.112 21.9684 29.2618 22.1213 29.5335V29.559H16.9465C16.8234 29.4359 15.2272 26.7487 12.1538 21.4975C11.7759 20.8693 11.5807 20.5509 11.5637 20.5509C8.10392 26.4261 6.32947 29.4274 6.23183 29.559H1.03157V29.4953C6.35494 20.4532 9.1185 15.7751 9.31802 15.4695H9.31378Z" fill="black"/>
<path d="M23.4967 15.4693H27.8692C27.9116 15.4778 27.9328 15.499 27.9328 15.533V23.7261C27.9328 24.9062 28.4592 25.6958 29.5078 26.0906C29.7158 26.1798 30.0257 26.2222 30.429 26.2222H35.8542C36.9919 26.2222 37.7688 25.6831 38.1805 24.6091C38.24 24.3459 38.2739 24.0445 38.2739 23.7048V15.5373C38.2824 15.4948 38.3036 15.4736 38.3376 15.4736H42.7228C42.7652 15.4821 42.7907 15.5033 42.7907 15.5373V25.7552C42.7907 27.1137 42.0351 28.2174 40.5196 29.0664C39.8106 29.3975 39.106 29.5674 38.4055 29.5674H27.7163C26.4385 29.5674 25.2966 29.0325 24.2905 27.9669C23.7217 27.275 23.4373 26.5406 23.4373 25.7595V15.5415C23.4457 15.4991 23.467 15.4778 23.5052 15.4778L23.4967 15.4693Z" fill="black"/>
<path d="M44.1661 15.4693H63.3922C63.4346 15.4778 63.4601 15.499 63.4601 15.533V18.7508C63.4601 18.7933 63.4389 18.8187 63.3922 18.8187H56.0524V29.4952C56.0524 29.5376 56.0312 29.5589 55.9887 29.5589H51.6035C51.5611 29.5589 51.5356 29.5376 51.5356 29.4952V18.8187H44.1703C44.1279 18.8187 44.1024 18.7975 44.1024 18.7508V15.533C44.1109 15.4906 44.1321 15.4693 44.1703 15.4693H44.1661Z" fill="black"/>
<path d="M69.1146 15.4692H79.5831C81.158 15.4692 82.44 16.0762 83.4292 17.2946C83.8919 17.9441 84.1253 18.6233 84.1253 19.345V25.7126C84.1253 27.139 83.323 28.264 81.7226 29.0875C81.0476 29.4016 80.3345 29.5587 79.5831 29.5587H69.2462C67.7138 29.5587 66.4402 28.9389 65.4256 27.6951C64.9884 27.0753 64.7676 26.4258 64.7676 25.7508V19.3153C64.7676 17.8167 65.6506 16.6536 67.4208 15.8215C68.1213 15.5838 68.6859 15.465 69.1146 15.465V15.4692ZM69.2717 21.1152V23.8872C69.2717 25.0249 69.8618 25.7848 71.0462 26.1584C71.2117 26.2008 71.3858 26.2221 71.5725 26.2221H77.3502C78.3817 26.2221 79.1034 25.6744 79.5152 24.5792C79.5746 24.4221 79.6086 24.2099 79.6086 23.9509V21.2723C79.6086 20.0709 79.0524 19.2728 77.9402 18.8695C77.6176 18.8356 77.3332 18.8186 77.087 18.8186H71.5725C70.5113 18.8186 69.7769 19.362 69.3651 20.4487C69.3057 20.6695 69.2717 20.8902 69.2717 21.1194V21.1152Z" fill="black"/>
<path d="M4.02128 39.594L3.72489 38.9051H1.56205L1.26566 39.594H0.104137L2.46724 34.211H2.82771L5.18281 39.594H4.02128ZM3.34039 38.016L2.64347 36.2376L1.94656 38.016H3.34039ZM10.1393 34.3071V37.4072C10.1393 38.1014 9.92831 38.6568 9.50642 39.0733C9.08988 39.4845 8.55317 39.6902 7.89631 39.6902C7.23945 39.6902 6.70007 39.4845 6.27818 39.0733C5.86164 38.6568 5.65336 38.1014 5.65336 37.4072V34.3071H6.73478V37.4873C6.73478 37.8718 6.84159 38.1682 7.0552 38.3764C7.27416 38.5847 7.55453 38.6888 7.89631 38.6888C8.24343 38.6888 8.5238 38.5847 8.73741 38.3764C8.95103 38.1682 9.05784 37.8718 9.05784 37.4873V34.3071H10.1393ZM15.2836 34.3071V35.2844H13.5853V39.594H12.5039V35.2844H10.8137V34.3071H15.2836ZM16.3915 35.004C16.9362 34.4753 17.5984 34.211 18.3781 34.211C19.1578 34.211 19.8227 34.4753 20.3728 35.004C20.9228 35.5273 21.1978 36.1762 21.1978 36.9506C21.1978 37.7249 20.9228 38.3764 20.3728 38.9051C19.8227 39.4285 19.1578 39.6902 18.3781 39.6902C17.5984 39.6902 16.9362 39.4285 16.3915 38.9051C15.8468 38.3764 15.5745 37.7249 15.5745 36.9506C15.5745 36.1762 15.8468 35.5273 16.3915 35.004ZM18.3862 35.2123C17.8948 35.2123 17.489 35.3751 17.1686 35.7009C16.8481 36.0267 16.6879 36.4432 16.6879 36.9506C16.6879 37.4632 16.8455 37.8824 17.1605 38.2082C17.481 38.5286 17.8895 38.6888 18.3862 38.6888C18.8721 38.6888 19.2753 38.526 19.5957 38.2002C19.9215 37.8744 20.0844 37.4579 20.0844 36.9506C20.0844 36.4432 19.9215 36.0267 19.5957 35.7009C19.2753 35.3751 18.8721 35.2123 18.3862 35.2123ZM26.9359 34.211H27.2884V39.594H26.207V36.7663L24.8772 38.4405H24.5248L23.195 36.7663V39.594H22.1136V34.211H22.4661L24.701 37.0787L26.9359 34.211ZM31.9173 39.594L31.6209 38.9051H29.4581L29.1617 39.594H28.0002L30.3633 34.211H30.7237L33.0788 39.594H31.9173ZM31.2364 38.016L30.5395 36.2376L29.8426 38.016H31.2364ZM37.1717 34.3071V35.2844H35.4735V39.594H34.3921V35.2844H32.7018V34.3071H37.1717ZM38.9657 34.3071V39.594H37.8843V34.3071H38.9657ZM40.6891 35.004C41.2338 34.4753 41.896 34.211 42.6757 34.211C43.4554 34.211 44.1202 34.4753 44.6703 35.004C45.2204 35.5273 45.4954 36.1762 45.4954 36.9506C45.4954 37.7249 45.2204 38.3764 44.6703 38.9051C44.1202 39.4285 43.4554 39.6902 42.6757 39.6902C41.896 39.6902 41.2338 39.4285 40.6891 38.9051C40.1444 38.3764 39.872 37.7249 39.872 36.9506C39.872 36.1762 40.1444 35.5273 40.6891 35.004ZM42.6837 35.2123C42.1924 35.2123 41.7865 35.3751 41.4661 35.7009C41.1457 36.0267 40.9855 36.4432 40.9855 36.9506C40.9855 37.4632 41.143 37.8824 41.4581 38.2082C41.7785 38.5286 42.187 38.6888 42.6837 38.6888C43.1697 38.6888 43.5729 38.526 43.8933 38.2002C44.219 37.8744 44.3819 37.4579 44.3819 36.9506C44.3819 36.4432 44.219 36.0267 43.8933 35.7009C43.5729 35.3751 43.1697 35.2123 42.6837 35.2123ZM49.8316 34.3071H50.9131V39.6902H50.5526L47.4926 36.4219V39.594H46.4111V34.211H46.7636L49.8316 37.4552V34.3071ZM57.9236 34.3071V35.2844H55.4483V36.3578H57.2667V37.279H55.4483V38.6167H58.0197V39.594H54.3669V34.3071H57.9236ZM62.3153 34.3071H63.5329L61.1778 39.6902H60.8173L58.4542 34.3071H59.6798L61.0016 37.5113L62.3153 34.3071ZM67.8116 34.3071V35.2844H65.3363V36.3578H67.1547V37.279H65.3363V38.6167H67.9077V39.594H64.2549V34.3071H67.8116ZM73.3087 39.594H72.0911L70.7213 37.7276H69.9283V39.594H68.8469V34.3071H70.8335C71.3942 34.3071 71.8508 34.4646 72.2033 34.7797C72.5611 35.0894 72.74 35.5006 72.74 36.0133C72.74 36.3498 72.6572 36.6488 72.4917 36.9105C72.3261 37.1668 72.0991 37.3671 71.8108 37.5113L73.3087 39.594ZM69.9283 35.2603V36.7743H70.8335C71.0845 36.7743 71.2794 36.7049 71.4182 36.566C71.5624 36.4272 71.6345 36.243 71.6345 36.0133C71.6345 35.789 71.5624 35.6075 71.4182 35.4686C71.2741 35.3298 71.0791 35.2603 70.8335 35.2603H69.9283ZM77.9428 34.3071L76.1244 37.5113V39.594H75.0429V37.5193L73.2165 34.3071H74.4181L75.5797 36.4058L76.7492 34.3071H77.9428ZM84.9682 34.3071H86.1697L84.055 39.6902H83.7025L82.2286 36.3818L80.7466 39.6902H80.3942L78.2794 34.3071H79.481L80.6585 37.4232L82.0443 34.211H82.4048L83.7906 37.4232L84.9682 34.3071ZM91.482 34.3071V39.594H90.4006V37.311H88.0615V39.594H86.9801V34.3071H88.0615V36.3337H90.4006V34.3071H91.482ZM96.2474 34.3071V35.2844H93.7721V36.3578H95.5905V37.279H93.7721V38.6167H96.3435V39.594H92.6907V34.3071H96.2474ZM101.745 39.594H100.527L99.1571 37.7276H98.3641V39.594H97.2827V34.3071H99.2693C99.83 34.3071 100.287 34.4646 100.639 34.7797C100.997 35.0894 101.176 35.5006 101.176 36.0133C101.176 36.3498 101.093 36.6488 100.927 36.9105C100.762 37.1668 100.535 37.3671 100.247 37.5113L101.745 39.594ZM98.3641 35.2603V36.7743H99.2693C99.5203 36.7743 99.7152 36.7049 99.854 36.566C99.9982 36.4272 100.07 36.243 100.07 36.0133C100.07 35.789 99.9982 35.6075 99.854 35.4686C99.7098 35.3298 99.5149 35.2603 99.2693 35.2603H98.3641ZM105.963 34.3071V35.2844H103.488V36.3578H105.306V37.279H103.488V38.6167H106.059V39.594H102.407V34.3071H105.963Z" fill="black"/>
<path d="M93.316 21.0174H98.2827C98.3804 21.0641 99.4035 21.9981 101.356 23.8107C105.3 27.47 107.35 29.3803 107.516 29.5416V29.5586H101.776C101.641 29.4864 99.8704 27.8563 96.4616 24.6682C96.0456 24.2862 95.8248 24.0951 95.8079 24.0951C91.9703 27.6568 90.0005 29.4779 89.8944 29.5586H84.1253V29.5204C90.0303 24.0357 93.091 21.2042 93.316 21.0174Z" fill="#231F20"/>
<path d="M98.3252 19.7992H93.3584C93.2608 19.7525 92.2377 18.8186 90.285 17.0059C86.3413 13.3466 84.2909 11.4363 84.1253 11.275V11.258H89.8647C90.0006 11.3302 95.8164 16.7215 95.8376 16.7215C99.6752 13.1598 114.894 0.0806571 115 0C115 0 98.5502 19.6167 98.3295 19.7992H98.3252Z" fill="#4F46E5"/>
</svg>
